<?xml version="1.0" encoding="UTF-8" standalone="no"?>
<!-- Uploaded to: SVG Repo, www.svgrepo.com, Generator: SVG Repo Mixer Tools -->

<svg
   width="800px"
   height="800px"
   viewBox="0 -3.5 256 256"
   preserveAspectRatio="xMinYMin meet"
   version="1.1"
   id="svg2"
   sodipodi:docname="github-icon-1-logo-svgrepo-com.svg"
   inkscape:version="1.4 (e7c3feb100, 2024-10-09)"
   xmlns:inkscape="http://www.inkscape.org/namespaces/inkscape"
   xmlns:sodipodi="http://sodipodi.sourceforge.net/DTD/sodipodi-0.dtd"
   xmlns="http://www.w3.org/2000/svg"
   xmlns:svg="http://www.w3.org/2000/svg">
  <defs
     id="defs2" />
  <sodipodi:namedview
     id="namedview2"
     pagecolor="#ffffff"
     bordercolor="#000000"
     borderopacity="0.25"
     inkscape:showpageshadow="2"
     inkscape:pageopacity="0.0"
     inkscape:pagecheckerboard="0"
     inkscape:deskcolor="#d1d1d1"
     inkscape:zoom="0.5"
     inkscape:cx="230"
     inkscape:cy="343"
     inkscape:window-width="1920"
     inkscape:window-height="1012"
     inkscape:window-x="0"
     inkscape:window-y="0"
     inkscape:window-maximized="1"
     inkscape:current-layer="svg2" />
  <g
     fill="#161614"
     id="g2">
    <path
       d="M127.505 0C57.095 0 0 57.085 0 127.505c0 56.336 36.534 104.13 87.196 120.99 6.372 1.18 8.712-2.766 8.712-6.134 0-3.04-.119-13.085-.173-23.739-35.473 7.713-42.958-15.044-42.958-15.044-5.8-14.738-14.157-18.656-14.157-18.656-11.568-7.914.872-7.752.872-7.752 12.804.9 19.546 13.14 19.546 13.14 11.372 19.493 29.828 13.857 37.104 10.6 1.144-8.242 4.449-13.866 8.095-17.05-28.32-3.225-58.092-14.158-58.092-63.014 0-13.92 4.981-25.295 13.138-34.224-1.324-3.212-5.688-16.18 1.235-33.743 0 0 10.707-3.427 35.073 13.07 10.17-2.826 21.078-4.242 31.914-4.29 10.836.048 21.752 1.464 31.942 4.29 24.337-16.497 35.029-13.07 35.029-13.07 6.94 17.563 2.574 30.531 1.25 33.743 8.175 8.929 13.122 20.303 13.122 34.224 0 48.972-29.828 59.756-58.22 62.912 4.573 3.957 8.648 11.717 8.648 23.612 0 17.06-.148 30.791-.148 34.991 0 3.393 2.295 7.369 8.759 6.117 50.634-16.879 87.122-64.656 87.122-120.973C255.009 57.085 197.922 0 127.505 0"
       id="path1" />
    <path
       id="path2"
       d="m 64.45625,199.12313 c -0.0061,-0.004 -0.0059,0.0145 -0.0044,0.0212 0.0011,0.005 0.0052,0.0191 0.0075,0.0281 -1.09e-4,-0.0129 5e-6,-0.0259 6.25e-4,-0.0388 -0.0013,-0.004 -0.001,-0.009 -0.0037,-0.0106 z" />
  </g>
</svg>
